<svg width="108" height="296" viewBox="0 0 108 296" fill="none" xmlns="http://www.w3.org/2000/svg">
<path d="M107.137 295L106.762 295.927C106.881 295.975 107.009 296 107.137 296V295ZM107.137 1.00001V1.04904e-05C106.993 1.04904e-05 106.85 0.0312171 106.719 0.091489L107.137 1.00001ZM107.512 294.073C75.1343 280.978 48.7436 253.709 30.435 224.864C12.1133 195.998 2 165.737 2 146.8H0C0 166.263 10.3181 196.902 28.7464 225.936C47.1879 254.991 73.8657 282.622 106.762 295.927L107.512 294.073ZM2 146.8C2 127.885 12.759 98.8329 31.4177 70.8548C50.0579 42.9045 76.4635 16.2079 107.555 1.90853L106.719 0.091489C75.19 14.5922 48.5269 41.5956 29.7538 69.7452C10.9992 97.8671 0 127.315 0 146.8H2ZM107.137 296H107.668V294H107.137V296ZM107.137 2.00001H107.668V1.04904e-05H107.137V2.00001Z" fill="#D9D9D9"/>
<path d="M68.9278 78.4802V218.581C45.8809 196.333 28.5957 163.262 28.5957 148.831C28.5957 134.4 46.6637 99.3449 68.9278 78.4802Z" fill="#D9D9D9"/>
</svg>
