<svg width="387" height="141" viewBox="0 0 387 141" fill="none" xmlns="http://www.w3.org/2000/svg">
<path d="M1 139.989L0.0729516 139.614C0.024769 139.733 0 139.861 0 139.989H1ZM386 139.989H387C387 139.845 386.969 139.702 386.909 139.571L386 139.989ZM1.92705 140.364C19.1079 97.8843 54.8727 63.2806 92.6787 39.2845C130.506 15.2753 170.192 2 195.071 2V0C169.665 0 129.602 13.4801 91.607 37.5959C53.5916 61.7249 17.4636 96.6157 0.0729516 139.614L1.92705 140.364ZM195.071 2C219.929 2 258.035 16.1263 294.695 40.5752C331.328 65.0056 366.335 99.6241 385.091 140.407L386.909 139.571C367.951 98.3506 332.637 63.4746 295.805 38.9113C259.001 14.3665 220.499 0 195.071 0V2ZM0 139.989V140.684H2V139.989H0ZM385 139.989V140.684H387V139.989H385Z" fill="#D9D9D9"/>
<path d="M284.538 89.9531H101.072C130.206 59.7726 173.514 37.1372 192.411 37.1372C211.309 37.1372 257.215 60.7977 284.538 89.9531Z" fill="#D9D9D9"/>
</svg>
