<svg width="387" height="99" viewBox="0 0 387 99" fill="none" xmlns="http://www.w3.org/2000/svg">
<path d="M1 0.695035H0C0 0.728516 0.00168146 0.761976 0.00503802 0.795288L1 0.695035ZM42.7722 98L42.0524 98.6943L42.3474 99H42.7722V98ZM344.228 98V99H344.662L344.958 98.6828L344.228 98ZM386 0.695035L386.997 0.76709C386.999 0.743111 387 0.719077 387 0.695035L386 0.695035ZM0.00503802 0.795288C2.37738 24.3397 5.84374 41.5367 12.2585 56.5007C18.6785 71.477 28.023 84.1505 42.0524 98.6943L43.4919 97.3057C29.562 82.8652 20.3888 70.3906 14.0967 55.7127C7.79934 41.0225 4.35925 24.0592 1.99496 0.594782L0.00503802 0.795288ZM42.7722 99H344.228V97H42.7722V99ZM344.958 98.6828C359.894 82.7008 369.627 69.2706 376.013 54.277C382.397 39.2865 385.405 22.8042 386.997 0.76709L385.003 0.62298C383.418 22.5608 380.433 38.7937 374.173 53.4933C367.913 68.1897 358.349 81.4245 343.497 97.3172L344.958 98.6828ZM387 0.695035V0H385V0.695035H387ZM2 0.695035V0H0V0.695035H2Z" fill="#D9D9D9"/>
</svg>
