<svg width="76" height="296" viewBox="0 0 76 296" fill="none" xmlns="http://www.w3.org/2000/svg">
<path d="M0.531915 295L0.531915 296C0.565323 296 0.598711 295.998 0.631951 295.995L0.531915 295ZM75 263.101L75.6935 263.822L76 263.527V263.101H75ZM75 32.8988H76V32.4639L75.682 32.1674L75 32.8988ZM0.531915 1.00001L0.603813 0.00259854C0.579886 0.000873733 0.555904 1.04904e-05 0.531915 1.04904e-05L0.531915 1.00001ZM0.631951 295.995C18.6599 294.182 31.8481 291.532 43.3321 286.62C54.8284 281.703 64.5508 274.547 75.6935 263.822L74.3065 262.381C63.2673 273.006 53.7437 279.991 42.5455 284.781C31.335 289.577 18.3801 292.2 0.431878 294.005L0.631951 295.995ZM76 263.101L76 32.8988H74L74 263.101H76ZM75.682 32.1674C63.4404 20.7526 53.1392 13.3002 41.6297 8.40892C30.1235 3.51906 17.4805 1.21916 0.603813 0.00259854L0.460016 1.99742C17.2376 3.20684 29.6317 5.48316 40.8475 10.2496C52.06 15.0146 62.1658 22.2986 74.318 33.6301L75.682 32.1674ZM0.531915 1.04904e-05H0L0 2.00001H0.531915L0.531915 1.04904e-05ZM0.531915 294H0L0 296H0.531915L0.531915 294Z" fill="#D9D9D9"/>
</svg>
