<svg version="1.2" xmlns="http://www.w3.org/2000/svg" viewBox="0 0 190 50" width="190" height="50"><defs><clipPath clipPathUnits="userSpaceOnUse" id="cp1"><path d="m-340-2875h1920v3250h-1920z"/></clipPath></defs><style>.a{fill:#fff}.b{fill:white}</style><g clip-path="url(#cp1)"><path fill-rule="evenodd" class="a" d="m30.9 36.2c0.4 0 0.7 0.3 0.7 0.7 0 0.3-0.3 0.6-0.7 0.6h-6.5c-0.4 0-0.7-0.3-0.7-0.6 0-0.4 0.3-0.7 0.7-0.7zm-18-4.2q-0.2-0.2-0.2-0.5c0.1-0.7 2.1-16.4 11.5-22.2 0.2-0.2 0.5-0.2 0.7-0.1 0.2 0.2 0.3 0.4 0.3 0.6v19.4c0 0.4-0.3 0.7-0.6 0.7-0.4 0-0.7-0.3-0.7-0.7v-18.1c-7 5.2-9.2 16.8-9.7 19.8h20.8c-0.5-6.1-8.2-10.9-8.2-10.9-0.4-0.2-0.4-0.6-0.3-0.9 0.2-0.4 0.6-0.5 1-0.3 0.3 0.3 8.9 5.6 8.9 12.8 0 0.4-0.3 0.7-0.7 0.7h-22.3q-0.3 0-0.5-0.3zm26.8 2.3c0 0.4-0.3 0.7-0.7 0.7h-28.3l3.9 5.6h3q0.9-0.2 1.8-0.3c1.9-0.4 3.9-0.8 5.3-0.8 1.4 0 3.5 0.4 5.5 0.8q0.9 0.1 1.8 0.3h2.9l2.8-3.1h-4.1c-0.4 0-0.7-0.3-0.7-0.6 0-0.4 0.3-0.7 0.7-0.7h5.6c0.3 0 0.5 0.1 0.7 0.4 0.1 0.2 0 0.5-0.2 0.7l-3.2 3.6c1.4-0.1 3.6-0.4 5.7-0.7 3-3.5 5-7.8 5.6-12.3h-5.9c-0.4 0-0.8-0.3-0.8-0.7 0-0.4 0.4-0.7 0.8-0.7h6q0.1-0.5 0.1-1h-9.6c-0.4 0-0.7-0.3-0.7-0.7 0-0.4 0.3-0.7 0.7-0.7h9.6c-0.4-12.6-10.7-22.7-23.3-22.7-3.8 0-7.5 0.9-10.6 2.6h4.2c0.4 0 0.7 0.3 0.7 0.7 0 0.4-0.3 0.7-0.7 0.7h-6.6c-4 2.7-7.2 6.7-8.9 11.3h9.3c0.4 0 0.7 0.3 0.7 0.7 0 0.4-0.3 0.7-0.7 0.7h-9.8q-0.3 1-0.5 2.1h5.2c0.4 0 0.7 0.3 0.7 0.7 0 0.3-0.3 0.7-0.7 0.7h-5.4q-0.2 1.5-0.2 3.2c0 5.7 2 11.1 5.8 15.4 2.1 0.3 4.4 0.6 6 0.7l-4.3-6.2c-0.1-0.2-0.2-0.5 0-0.7 0.1-0.2 0.3-0.3 0.6-0.3h29.5c0.4 0 0.7 0.3 0.7 0.6zm8 5c0.1 0 0.2 0.2 0.2 0.3l-0.8 1q-0.1 0.3-0.4 0.3c-0.4 0.1-1 0.2-1.8 0.3-2.7 0.4-7.5 1.2-9.5 1.2-1.4 0-3.4-0.4-5.4-0.8-2-0.3-4-0.7-5.3-0.7-1.3 0-3.2 0.4-5.1 0.7-1.9 0.4-3.8 0.7-5.2 0.8-2.2 0-7.2-0.8-10-1.2-0.8-0.1-1.4-0.2-1.7-0.3q-0.3 0-0.5-0.3l-0.7-1.1c-0.1-0.1 0-0.2 0.1-0.2 0.4 0.1 0.9 0.2 1.6 0.3q0.8 0.1 1.9 0.3c-3.3-4.3-5.1-9.6-5.1-15.1 0-8.6 4.3-16.1 10.9-20.6q0.1-0.1 0.3-0.2c3.9-2.5 8.5-4 13.5-4 13.6 0 24.7 11.1 24.7 24.8 0 5.5-1.8 10.8-5.1 15.1q1-0.2 1.9-0.3c0.6-0.1 1.2-0.2 1.5-0.3zm-18.1 6.3c-1.8-0.3-3.7-0.7-4.9-0.7-1.3 0-3.3 0.4-5.3 0.7-2 0.4-4.1 0.7-5.5 0.7-1.8 0-6.4-1-7.6-1.3q-0.3-0.1-0.5-0.3l-1.5-1.5c-0.1 0 0-0.1 0.1-0.1 1.4 0.3 7.9 1.8 9.5 1.8 1.3 0 3.3-0.3 5.3-0.7 2-0.3 4.1-0.7 5.5-0.7 1.3 0 3.2 0.4 5.1 0.7 1.9 0.4 3.8 0.7 5 0.7 1.8 0 8.6-1.4 10.1-1.7 0.1 0 0.1 0.1 0 0.2l-1.1 1.2q-0.3 0.2-0.5 0.3c-1.4 0.3-6.6 1.4-8.5 1.4-1.4 0-3.2-0.3-5.2-0.7zm-1.1 3.6c-1.5-0.3-2.9-0.6-3.7-0.6-1 0-2.7 0.3-4.5 0.6-2.2 0.4-4.5 0.8-6.4 0.8-0.8 0-2.6-1.1-3.3-1.5l-0.8-0.6c1 0.6 3.7 0.7 4 0.7 1.7 0 4.2-0.4 6.3-0.8 1.9-0.3 3.6-0.6 4.7-0.6 0.9 0 2.3 0.3 3.9 0.6 1.9 0.4 4.1 0.8 5.8 0.8 1.8 0 5.9-1.2 5.9-1.2l-1.7 1.1c-0.1 0.1-1.9 1.5-4.2 1.5-1.8 0-4.1-0.4-6-0.8zm11.9-1.8q0 0 0 0z"/><path fill-rule="evenodd" class="a" d="m84.3 7.2c-0.8-0.5-1.9-0.3-2.4 0.5l-7.9 11.1-7.9-11.1c-0.5-0.8-1.6-1-2.4-0.5-0.8 0.5-1 1.6-0.5 2.3l9 12.8v8.8c0 0.8 0.8 1.6 1.8 1.6 1 0 1.7-0.8 1.7-1.6v-8.8l9.1-12.8c0.5-0.7 0.3-1.8-0.5-2.3zm7.1 25.9h0.2c1.3 0 2.5-0.2 3.5-0.6q1.4-0.6 2.4-1.6c1.9-1.9 1.8-4.4 1.8-4.9v-17.6c0-0.9-0.7-1.7-1.7-1.7-0.9 0-1.7 0.8-1.7 1.7v17.8c0 0 0.1 1.5-0.9 2.5q-1.1 1.1-3.5 1.1c-0.1 0-1 0-2-0.3q-1.7-0.4-2.5-1.5c-0.4-0.8-1.5-1.1-2.3-0.6-0.8 0.5-1.1 1.5-0.6 2.3 0.9 1.5 2.6 2.6 4.7 3.1 1.1 0.3 2.1 0.3 2.6 0.3zm27.4-20.9l5.4 10.6c-1.4-0.2-2.9-0.1-4.5 0.2-2.2 0.4-4.6 1.2-6.9 2.3q-0.5 0.3-1 0.5zm-11.6 20.4c0.5 0 0.9-0.2 1.2-0.4 0.1-0.1 2.5-2.2 6.1-4q3-1.5 5.9-2 3.1-0.6 5.8 0.2l2.7 5.3c0.4 0.7 1.4 1.1 2.3 0.7 0.9-0.4 1.2-1.4 0.8-2.2l-11.6-22.4c-0.3-0.6-0.9-0.9-1.6-0.9-0.7 0-1.2 0.3-1.6 0.9l-11.5 22.5c-0.4 0.7-0.2 1.5 0.5 2 0.3 0.2 0.7 0.3 1 0.3zm32 0c1 0 1.7-0.7 1.7-1.6v-20.9h8.6c0.1 0 1.4 0.1 2.6 0.7q1.1 0.6 1.6 1.5 0.8 1.3 0.8 3.3c0 1.9-0.7 3.2-2.2 4q-2.1 1.1-5.8 1.1c-0.9 0-1.6 0.6-1.7 1.5-0.1 0.8 0.5 1.6 1.4 1.7 0.1 0 1 0.3 2.2 1 1.7 1.1 3.2 2.6 4.4 4.6 1.1 1.7 2.5 2.5 3.4 2.8 1.1 0.3 1.9 0.2 2.1 0.2 1-0.1 1.6-1 1.5-1.9-0.2-0.8-1-1.4-2-1.3-0.1 0-1.1 0-2-1.5-1.1-1.8-2.4-3.3-3.9-4.5 0.8-0.2 1.5-0.5 2.1-0.8 2.6-1.5 4-3.8 4-6.9 0-1.4-0.2-2.7-0.7-3.8q-0.6-1.6-1.8-2.6c-1-1-2.4-1.7-3.9-2.1-1.1-0.2-1.9-0.2-2.1-0.2h-10.3c-1 0-1.7 0.7-1.7 1.6v22.5c0 0.9 0.7 1.6 1.7 1.6zm37.5-20.4l5.4 10.5c-1.5-0.1-2.9 0-4.5 0.3-2.3 0.4-4.6 1.2-6.9 2.3q-0.6 0.3-1 0.5zm-11.6 20.4c0.4 0 0.9-0.2 1.2-0.5 0 0 2.5-2.1 6-3.9q3.1-1.5 6-2 3-0.6 5.7 0.2l2.7 5.3c0.5 0.7 1.5 1.1 2.4 0.7 0.8-0.4 1.2-1.4 0.8-2.2l-11.7-22.4c-0.2-0.6-0.9-0.9-1.5-0.9-0.7 0-1.3 0.3-1.6 0.9l-11.5 22.4c-0.4 0.8-0.2 1.6 0.5 2.1 0.3 0.2 0.7 0.3 1 0.3z"/><path fill-rule="evenodd" class="b" d="m187.4 43.3q-0.5 0-0.9-0.1-0.5 0-0.8-0.2-0.3-0.3-0.5-0.6-0.2-0.3-0.2-0.8v-0.1q0 0 0 0h1.3q0 0 0 0 0 0.1 0 0.1 0 0.2 0.1 0.4 0.2 0.1 0.4 0.2 0.3 0.1 0.6 0.1 0.1 0 0.3 0 0.1-0.1 0.3-0.1 0.1 0 0.2-0.1 0-0.1 0.1-0.1 0-0.1 0-0.2 0-0.2-0.1-0.3-0.1-0.1-0.4-0.2-0.2-0.1-0.5-0.2-0.3 0-0.6-0.1-0.3-0.1-0.6-0.2-0.3-0.1-0.5-0.3-0.3-0.2-0.4-0.5-0.1-0.2-0.1-0.6 0-0.4 0.1-0.7 0.2-0.4 0.5-0.6 0.4-0.1 0.8-0.2 0.4-0.1 0.9-0.1 0.4 0 0.8 0.1 0.4 0.1 0.8 0.3 0.3 0.2 0.4 0.5 0.2 0.3 0.2 0.7v0.1h-1.3v-0.1q0-0.2-0.1-0.3-0.1-0.1-0.3-0.2-0.2-0.1-0.5-0.1-0.3 0-0.5 0.1-0.2 0-0.3 0.1-0.1 0.1-0.1 0.3 0 0.1 0.1 0.2 0.2 0.2 0.4 0.2 0.2 0.1 0.5 0.2l0.6 0.1q0.3 0.1 0.6 0.2 0.3 0.1 0.6 0.3 0.2 0.2 0.3 0.4 0.2 0.3 0.2 0.7 0 0.6-0.3 1-0.3 0.4-0.9 0.6-0.5 0.1-1.2 0.1zm-10.6-0.1v-5.3h1.2l2 2.5q0 0 0.1 0.1 0.1 0.2 0.2 0.3 0.1 0.1 0.1 0.2h0.1v-3.1h1.3v5.3h-1.3l-2.1-2.6q-0.1-0.1-0.2-0.2 0-0.2-0.1-0.3v3.1zm-7.9 0v-5.3h4.5v1.1h-3.1v1h2.7v1h-2.7v1.1h3.1v1.1zm-6.4 0.1q-1.3 0-2-0.7-0.6-0.6-0.6-2.1 0-0.9 0.3-1.5 0.3-0.6 1-0.9 0.6-0.3 1.5-0.3 0.6 0 1 0.1 0.5 0.1 0.9 0.4 0.4 0.2 0.6 0.6 0.2 0.4 0.2 0.9h-1.4q0-0.2-0.1-0.4-0.1-0.2-0.3-0.3-0.1-0.1-0.4-0.2-0.2 0-0.4 0-0.4 0-0.7 0.1-0.2 0.1-0.4 0.3-0.2 0.1-0.3 0.4-0.1 0.3-0.1 0.7v0.3q0 0.5 0.2 0.9 0.1 0.3 0.4 0.5 0.4 0.1 0.8 0.1 0.4 0 0.7-0.1 0.3-0.1 0.4-0.3 0.2-0.2 0.2-0.5h-1.5v-1h2.9v2.9h-0.8l-0.2-0.5q-0.2 0.2-0.5 0.3-0.3 0.2-0.6 0.3-0.4 0-0.8 0zm-11.2-0.1l2-5.3h1.7l2 5.3h-1.5l-0.3-0.9h-2.1l-0.4 0.9zm2.2-1.9h1.4l-0.4-1.2q0-0.1 0-0.2-0.1-0.1-0.1-0.3-0.1-0.1-0.1-0.3 0-0.1-0.1-0.2-0.1 0.1-0.1 0.3-0.1 0.2-0.1 0.4-0.1 0.2-0.2 0.3zm-6.4 2v-5.4h1.4v5.4zm-6.6 0l-2-5.4h1.5l1 3.1 0.1 0.2q0.1 0.2 0.1 0.3 0.1 0.2 0.1 0.3 0.1-0.1 0.1-0.3 0.1-0.1 0.1-0.3l0.1-0.2 1-3.1h1.4l-1.9 5.4z"/></g></svg>