<svg version="1.2" xmlns="http://www.w3.org/2000/svg" viewBox="0 0 208 55" width="208" height="55"><defs><clipPath clipPathUnits="userSpaceOnUse" id="cp1"><path d="m-340-25h1920v3250h-1920z"/></clipPath></defs><style>.a{fill:#00579d}.b{fill:#55c2f0}</style><g clip-path="url(#cp1)"><path fill-rule="evenodd" class="a" d="m33.8 39.8c0.4 0 0.7 0.3 0.7 0.7 0 0.5-0.3 0.8-0.7 0.8h-7.1c-0.4 0-0.8-0.3-0.8-0.8 0-0.4 0.4-0.7 0.8-0.7zm-19.7-4.6q-0.2-0.2-0.2-0.5c0.1-0.8 2.3-18.1 12.6-24.5 0.2-0.2 0.5-0.2 0.7 0 0.3 0.1 0.4 0.3 0.4 0.6v21.3c0 0.4-0.3 0.7-0.7 0.7-0.4 0-0.8-0.3-0.8-0.7v-19.9c-7.6 5.7-10.1 18.5-10.6 21.8h22.8c-0.6-6.7-8.9-12-9-12-0.4-0.2-0.5-0.7-0.3-1 0.3-0.4 0.7-0.5 1-0.3 0.4 0.3 9.8 6.1 9.8 14 0 0.5-0.3 0.8-0.7 0.8h-24.5q-0.3 0-0.5-0.3zm29.4 2.6c0 0.4-0.4 0.7-0.8 0.7h-31l4.2 6.1h3.4q0.9-0.1 1.9-0.3c2.1-0.4 4.3-0.8 5.8-0.8 1.6 0 3.9 0.4 6 0.8q1.1 0.2 2.1 0.3h3.1l3.1-3.3h-4.5c-0.4 0-0.8-0.3-0.8-0.8 0-0.4 0.4-0.7 0.8-0.7h6.1c0.3 0 0.6 0.2 0.7 0.5 0.1 0.2 0.1 0.5-0.1 0.7l-3.6 4c1.6-0.1 4-0.4 6.3-0.8 3.3-3.8 5.4-8.5 6.1-13.5h-6.5c-0.4 0-0.8-0.4-0.8-0.8 0-0.4 0.4-0.8 0.8-0.8h6.6q0.1-0.5 0.1-1.1h-10.4c-0.5 0-0.8-0.3-0.8-0.8 0-0.4 0.3-0.7 0.8-0.7h10.4c-0.4-13.8-11.7-25-25.5-25-4.2 0-8.1 1.1-11.6 2.9h4.6c0.5 0 0.8 0.3 0.8 0.8 0 0.4-0.3 0.7-0.8 0.7h-7.2c-4.4 3-7.9 7.4-9.7 12.5h10.1c0.4 0 0.8 0.3 0.8 0.7 0 0.5-0.4 0.8-0.8 0.8h-10.6q-0.4 1.1-0.6 2.3h5.7c0.4 0 0.7 0.3 0.7 0.7 0 0.5-0.3 0.8-0.7 0.8h-6q-0.2 1.8-0.2 3.6c0 6.2 2.2 12.2 6.3 16.9 2.4 0.3 4.9 0.7 6.6 0.8l-4.7-6.8c-0.1-0.3-0.1-0.5 0-0.8 0.1-0.2 0.4-0.4 0.6-0.4h32.4c0.4 0 0.8 0.4 0.8 0.8zm8.7 5.5c0.2 0 0.2 0.1 0.2 0.2l-0.8 1.2q-0.2 0.3-0.5 0.3c-0.4 0.1-1.1 0.2-1.9 0.3-3 0.5-8.2 1.3-10.4 1.3h-0.1c-1.5 0-3.6-0.4-5.9-0.8-2.2-0.4-4.4-0.8-5.8-0.8-1.4 0-3.5 0.4-5.5 0.8-2.2 0.4-4.2 0.8-5.7 0.8h-0.1c-2.4 0-7.8-0.8-10.9-1.3-0.9-0.1-1.5-0.2-1.9-0.3q-0.3-0.1-0.5-0.3l-0.8-1.2c-0.1-0.1 0.1-0.2 0.2-0.2 0.3 0 0.9 0.1 1.7 0.2q0.9 0.2 2.1 0.4c-3.7-4.8-5.6-10.6-5.6-16.6 0-9.5 4.7-17.8 12-22.7q0.1-0.1 0.2-0.2c4.3-2.8 9.4-4.4 14.8-4.4 14.9 0 27 12.2 27 27.2v0.1c0 6-1.9 11.8-5.6 16.6q1.2-0.2 2.1-0.3c0.8-0.2 1.4-0.3 1.7-0.3zm-19.8 6.9c-2-0.4-4.1-0.8-5.4-0.8-1.4 0-3.6 0.4-5.8 0.8-2.2 0.4-4.5 0.8-6 0.8-1.9 0-7-1.2-8.3-1.5q-0.3-0.1-0.6-0.4l-1.6-1.6c-0.1 0 0-0.1 0.1-0.1 1.5 0.3 8.6 2 10.4 2 1.4 0 3.6-0.4 5.8-0.8 2.2-0.3 4.5-0.7 6-0.7 1.4 0 3.5 0.3 5.7 0.7 2 0.4 4 0.8 5.3 0.8 2.1 0 9.5-1.5 11.1-1.9 0.1 0 0.2 0.1 0.1 0.2l-1.3 1.3q-0.2 0.3-0.6 0.4c-1.4 0.3-7.1 1.6-9.3 1.6-1.4 0-3.5-0.4-5.6-0.8zm-1.3 3.9c-1.6-0.3-3.1-0.6-4-0.6-1.1 0-2.9 0.3-4.9 0.6-2.4 0.4-5 0.9-7 0.9-0.9 0-2.8-1.2-3.6-1.7l-0.9-0.6c1.1 0.7 4.1 0.7 4.4 0.8 1.9 0 4.5-0.5 6.9-0.9 2.1-0.4 3.9-0.7 5.1-0.7 1 0 2.6 0.3 4.3 0.7 2.1 0.4 4.5 0.9 6.4 0.9 1.9 0 6.4-1.4 6.4-1.4l-1.9 1.2c-0.1 0.1-2 1.7-4.5 1.7-2.1 0-4.5-0.5-6.7-0.9zm13.1-2q0 0 0 0z"/><path fill-rule="evenodd" class="a" d="m92.3 7.9c-0.9-0.5-2.1-0.3-2.6 0.5l-8.7 12.3-8.7-12.3c-0.5-0.8-1.7-1-2.6-0.5-0.9 0.6-1.1 1.7-0.5 2.6l9.9 14v9.7c0 0.9 0.8 1.8 1.9 1.8 1.1 0 1.9-0.9 1.9-1.8v-9.7l9.9-14c0.6-0.9 0.4-2-0.5-2.6zm7.7 28.5h0.2c1.5 0 2.8-0.2 3.9-0.7 1-0.4 1.9-0.9 2.7-1.7 2-2.1 2-4.8 2-5.4v-19.4c0-1-0.9-1.8-1.9-1.8-1.1 0-1.9 0.8-1.9 1.8v19.6c0 0 0.1 1.6-1 2.8q-1.2 1.2-3.8 1.2h-0.1c-0.1 0-1 0-2.1-0.3q-1.9-0.5-2.7-1.7c-0.5-0.9-1.7-1.2-2.6-0.7-0.9 0.6-1.2 1.7-0.7 2.5 1.1 1.7 2.9 2.9 5.2 3.5 1.2 0.3 2.3 0.3 2.8 0.3zm30-22.9l6 11.5c-1.6-0.1-3.2 0-4.9 0.3-2.5 0.4-5.1 1.3-7.6 2.6q-0.6 0.2-1.1 0.5zm-12.7 22.4c0.5 0 1-0.1 1.3-0.5 0.1 0 2.8-2.4 6.6-4.3q3.4-1.7 6.5-2.2 3.4-0.6 6.4 0.2l2.9 5.8c0.5 0.9 1.6 1.2 2.6 0.8 0.9-0.5 1.3-1.5 0.8-2.4l-12.7-24.7c-0.3-0.6-1-1-1.7-1-0.7 0-1.4 0.4-1.7 1l-12.7 24.7c-0.4 0.8-0.1 1.8 0.6 2.3 0.3 0.2 0.8 0.3 1.1 0.3zm35 0c1.1 0 1.9-0.8 1.9-1.8v-22.9h9.4c0.2 0 1.6 0.1 2.9 0.8q1.1 0.6 1.7 1.6 0.9 1.4 0.9 3.6c0 2.1-0.8 3.5-2.5 4.4q-2.2 1.2-6.2 1.2c-1 0-1.9 0.7-1.9 1.6-0.1 1 0.5 1.8 1.5 2 0.1 0 1.1 0.2 2.4 1.1 1.9 1.1 3.5 2.8 4.8 5 1.2 1.9 2.7 2.7 3.7 3.1 1.2 0.3 2.1 0.3 2.4 0.2 1-0.1 1.7-1.1 1.5-2-0.1-1-1.1-1.7-2.1-1.5-0.1 0-1.2 0-2.2-1.6-1.2-2-2.6-3.7-4.3-5 0.9-0.3 1.6-0.6 2.3-0.9 2.9-1.6 4.4-4.2 4.4-7.6 0-1.6-0.3-3-0.8-4.2q-0.7-1.7-2-2.9c-1.1-1-2.5-1.8-4.2-2.2-1.2-0.3-2.1-0.3-2.3-0.3h-11.3c-1 0-1.9 0.8-1.9 1.8v24.7c0 1 0.9 1.8 1.9 1.8zm41-22.4l6 11.6c-1.6-0.2-3.2-0.1-4.9 0.2-2.5 0.5-5.1 1.3-7.6 2.6q-0.6 0.3-1.1 0.6zm-12.7 22.4c0.5 0 1-0.2 1.3-0.5 0.1-0.1 2.8-2.4 6.6-4.4q3.4-1.6 6.5-2.2 3.4-0.6 6.4 0.2l2.9 5.8c0.5 0.9 1.6 1.3 2.6 0.8 0.9-0.4 1.3-1.5 0.8-2.3l-12.7-24.7c-0.3-0.6-1-1-1.7-1-0.7 0-1.4 0.4-1.7 1l-12.7 24.7c-0.4 0.8-0.1 1.7 0.6 2.2 0.3 0.3 0.8 0.4 1.1 0.4z"/><path fill-rule="evenodd" class="b" d="m205.2 47.7q-0.6 0-1.1-0.1-0.4-0.1-0.8-0.4-0.4-0.2-0.6-0.5-0.2-0.4-0.2-0.9v-0.1q0-0.1 0-0.1h1.5q0 0 0 0.1 0 0 0 0 0 0.3 0.1 0.5 0.2 0.2 0.4 0.2 0.3 0.1 0.6 0.1 0.2 0 0.4 0 0.1 0 0.3-0.1 0.1 0 0.2-0.1 0.1-0.1 0.1-0.1 0.1-0.1 0.1-0.3 0-0.1-0.2-0.3-0.1-0.1-0.4-0.2-0.2-0.1-0.5-0.2-0.4 0-0.7-0.1-0.4-0.1-0.7-0.2-0.3-0.2-0.5-0.4-0.3-0.2-0.4-0.5-0.2-0.3-0.2-0.7 0-0.4 0.2-0.8 0.2-0.3 0.5-0.5 0.4-0.2 0.8-0.3 0.5-0.1 1-0.1 0.5 0 1 0.1 0.4 0.1 0.8 0.3 0.3 0.2 0.5 0.5 0.2 0.4 0.2 0.8v0.1h-1.5q0-0.2-0.1-0.4-0.1-0.1-0.3-0.2-0.2-0.1-0.5-0.1-0.4 0-0.6 0-0.2 0.1-0.3 0.2-0.1 0.1-0.1 0.3 0 0.2 0.1 0.3 0.2 0.1 0.4 0.2 0.3 0.1 0.6 0.2l0.7 0.1q0.3 0.1 0.6 0.2 0.3 0.2 0.6 0.3 0.3 0.2 0.4 0.5 0.2 0.3 0.2 0.7 0 0.7-0.4 1.1-0.3 0.5-0.9 0.7-0.6 0.2-1.3 0.2zm-11.7-0.1v-5.9h1.4l2.1 2.7q0.1 0.1 0.2 0.2 0.1 0.1 0.2 0.3 0.1 0.1 0.1 0.2h0.1v-3.4h1.4v5.9h-1.4l-2.3-2.9q-0.1-0.2-0.2-0.3-0.1-0.2-0.1-0.2h-0.1v3.4zm-8.6 0v-5.9h4.9v1.2h-3.3v1.1h2.9v1.1h-2.9v1.3h3.4v1.2zm-7 0.1q-1.4 0-2.2-0.8-0.7-0.7-0.7-2.3 0-1 0.3-1.7 0.4-0.7 1.1-1 0.7-0.3 1.7-0.3 0.6 0 1.1 0.1 0.5 0.1 0.9 0.4 0.4 0.3 0.7 0.7 0.2 0.4 0.2 0.9h-1.5q0-0.2-0.1-0.4-0.1-0.2-0.3-0.3-0.2-0.1-0.4-0.2-0.3 0-0.5 0-0.4 0-0.8 0.1-0.3 0.1-0.5 0.3-0.2 0.2-0.3 0.5-0.1 0.3-0.1 0.7v0.4q0 0.6 0.2 0.9 0.2 0.4 0.5 0.6 0.4 0.2 0.9 0.2 0.4 0 0.7-0.2 0.3-0.1 0.5-0.3 0.2-0.2 0.2-0.6h-1.6v-1.1h3.1v3.3h-0.9l-0.2-0.7q-0.2 0.3-0.5 0.4-0.3 0.2-0.7 0.3-0.4 0.1-0.8 0.1zm-12.3-0.1l2.2-5.9h1.8l2.3 5.9h-1.7l-0.3-1.1h-2.4l-0.3 1.1zm2.3-2.2h1.6l-0.4-1.3q-0.1-0.1-0.1-0.2-0.1-0.1-0.1-0.3-0.1-0.2-0.1-0.3-0.1-0.2-0.1-0.3h-0.1q0 0.2-0.1 0.4 0 0.2-0.1 0.4 0 0.2-0.1 0.3zm-7.1 2.2v-5.9h1.5v5.9zm-7.2 0l-2.1-5.9h1.6l1.1 3.3 0.1 0.3q0.1 0.2 0.1 0.4 0.1 0.1 0.1 0.3h0.1q0-0.2 0.1-0.3 0-0.2 0.1-0.4v-0.2l1.1-3.4h1.6l-2.1 5.9z"/></g></svg>