<svg version="1.2" xmlns="http://www.w3.org/2000/svg" viewBox="0 0 228 50" width="228" height="50"><defs><clipPath clipPathUnits="userSpaceOnUse" id="cp1"><path d="m-1160-253h1920v980h-1920z"/></clipPath></defs><style>.a{fill:#ffc926}.b{fill:#05467e}.c{fill:#067ff9}.d{opacity:.5;fill:#067ff9}.e{fill:#fff}</style><g clip-path="url(#cp1)"><path class="a" d="m154 33c0 3.2 0.8 6.2 2.4 8.7h17.6v-8.5h14v-0.2c0-9.4-7.6-17-17-17-9.4 0-17 7.6-17 17z"/><path class="b" d="m5.6 0v16.4h-5.6v6.2h5.6v27h16v-6.2h-9.8v-20.8h5.6v-6.2h-5.6v-16.4h-6.2z"/><path fill-rule="evenodd" class="b" d="m54.4 35.8h-25q0.8 3.5 3.3 5.8 2.6 2.2 6 2.2 2.3 0 4.3-1.1 1.9-1.1 3.3-3.1h7.1q-1 2.3-2.5 4.2-1.5 2-3.4 3.3-1.8 1.4-4.1 2.1-2.3 0.8-4.7 0.8-3.3 0-6.3-1.3-2.9-1.4-5.1-3.7-2.1-2.3-3.4-5.4-1.2-3.1-1.2-6.7 0-3.5 1.2-6.6 1.3-3.1 3.4-5.4 2.2-2.3 5.1-3.6 3-1.4 6.3-1.4 3.3 0 6.2 1.4 2.9 1.3 5 3.7 2.2 2.3 3.5 5.4 1.2 3.1 1.2 6.6 0 1.5-0.2 2.8zm-25-5.7h18.5q-0.9-3.5-3.4-5.7-2.5-2.3-5.8-2.3-3.4 0-5.9 2.3-2.6 2.2-3.4 5.7z"/><path class="b" d="m58.4 16.8v32.8h23.9v-10.9h-6.2v4.7h-11.5l-0.1-20.4h11.6v5h6.2v-11.2h-23.9z"/><path class="b" d="m88 0.3v49.3h6.2v-26.6h12.9v26.6h6.6v-32.8h-19.5v-16.5h-6.2z"/><path class="c" d="m119.9 16.8v32.8h6.2v-26.6h12.1v-6.2h-18.3z"/><path fill-rule="evenodd" class="c" d="m149.2 12.4v-6.2h-6.2v6.2zm-6.2 25.1v12.1h6.2v-33.2h-6z"/><path class="b" d="m176.4 41.7q2.6-0.1 4.5-0.1c6-1.2 10-4.5 12.7-9.2l-0.5-0.2 0.4-2.7c-4.7-1.2-10-0.7-15.5 0.2l-1-1.4c-1.4-0.7-2.9-1-4.3-1.3l-4.9 1c-1.5 0.4-3.5 1-4 1.9l-0.3 0.5-2.2 0.4-1.7 2.9-5.5 1.2c0.2 2.5 1.1 4.8 2.3 6.8z"/><path class="d" d="m154.2 35.8v0.1c0.4 2.1 1.1 4.1 2.2 5.8h2.8q0.1 0 0.2 0l8.3-1-8.9 0.7 8.3-1.3-8.1 0.6 7.4-1.4-8 0.7 7.6-1.7-7.6 1.1 6.8-1.6-7.5 1.1 7.1-1.6-7.2 1 6.9-1.6-7.2 0.9 6.7-1.5-6.9 1 6.2-1.5-6.4 0.8 6.4-1.5-6.6 1.2 5.4-1.4z"/><path fill-rule="evenodd" class="e" d="m178 41.2q6.9-1.5 12.3-5.9c-2.9 3.4-6.9 5.4-12.3 5.9zm-14.7-10.3l-0.5 1.1 0.2-1.3 7.2-1.6zm9.6-1l-0.9-2c-3.7 0.7-7.2 1.4-8 2.3 0.1-1 4.1-1.9 8.3-2.9l1.1 2.4zm1.4-0.3l-1.1-2.2c1.4 0.4 3.3 0.8 3.8 1.5l0.8 1zm-13.9 3.1q6.6-1.5 13.4-2.6l0.2 0.6q-6.8 0.9-13.6 2zm31.1 1.4c-9.1-1.4-19.3-1.4-30.6 0 11.2-2.4 21.5-2.4 31.3-1.2zm-0.6-4.4q0.4 0 0.7 0.1-0.4 0.1-0.8 0.2zm-3-0.3q1.3 0.1 2.6 0.2l-0.1 0.5q-1.7 0.3-3.4 0.4zm-4.2 0.1q1.9-0.1 3.6-0.1l-0.5 1.1q-1.9 0.2-3.8 0.2zm8.9 2.6q-6.7-0.8-13.8-0.4l-0.7-1.6q0.9-0.1 1.8-0.2l-0.6 1.3 0.9-1.4q1.6-0.2 3.1-0.3l-0.5 1.2h-0.8q0.4 0 0.8 0l-0.2 0.4 0.3-0.4q1.9 0.2 3.7 0.1l-0.2 0.4 0.3-0.4q1.9 0 3.6-0.3l-0.2 1 0.4-1.1q1-0.2 1.9-0.5 0.2 0.1 0.4 0.1z"/><path class="c" d="m195.3 36.3h25.6q-0.7 2.2-2.3 3.9-3.1 3-6.9 3h-8.3v6.4h8.3q4.4 0 8.1-2.2 3.8-2.2 6-6 2.2-3.7 2.2-8.1v-3.4h-25.5q0.6-2.1 2.2-3.7 1.4-1.5 3.2-2.2 1.8-0.8 3.8-0.8h8.2v-6.4h-8.2q-4.3 0-8.1 2.1-3.7 2.1-5.9 5.7-2.2 3.5-2.4 7.7v4z"/><path class="c" d="m156.4 41.7l0.1 0.3q0.3 0.3 0.5 0.7l20 0.3-19.5 0.4q1.3 1.7 3.1 3l7.4 0.4-6.6 0.2c2.7 1.9 6 3 9.6 3 2.3 0 4.4-0.4 6.4-1.2l-4.8-0.2 5.5-0.2c1.8-0.8 3.4-1.9 4.8-3.2l-12.7-0.3 13.3-0.3q1.1-1.2 2-2.6l0.1-0.3z"/></g></svg>